<?xml version="1.0" encoding="UTF-8" standalone="no"?>
<!DOCTYPE svg PUBLIC "-//W3C//DTD SVG 1.1//EN" "http://www.w3.org/Graphics/SVG/1.1/DTD/svg11.dtd">
<svg width="100%" height="100%" viewBox="0 0 1165 438" version="1.1" xmlns="http://www.w3.org/2000/svg" xmlns:xlink="http://www.w3.org/1999/xlink" xml:space="preserve" xmlns:serif="http://www.serif.com/" style="fill-rule:evenodd;clip-rule:evenodd;stroke-linejoin:round;stroke-miterlimit:2;">
    <g id="Artboard1" transform="matrix(0.646816,0,0,0.558935,-140.647,-623.829)">
        <rect x="217.445" y="1116.1" width="1801.12" height="783.613" style="fill:none;"/>
        <g transform="matrix(57.09,0,0,66.0662,-35810,-26208)">
            <path d="M645.274,415.225C645.274,415.36 645.227,415.428 645.133,415.428C644.987,415.428 638.468,415.541 636.77,415.479C636.723,417.067 636.699,418.341 636.699,419.299C636.699,419.898 636.721,420.797 636.766,421.994C636.81,423.192 636.832,424.091 636.832,424.69C636.832,424.799 636.757,424.854 636.606,424.854C636.512,424.854 636.369,424.846 636.176,424.83C635.983,424.815 635.837,424.807 635.738,424.807C635.645,424.807 635.931,424.791 635.738,424.807C635.546,424.823 635.402,424.83 635.309,424.83C635.179,424.83 635.113,424.765 635.113,424.635C635.113,424.041 635.138,423.149 635.188,421.959C635.237,420.769 635.262,419.875 635.262,419.276C635.262,418.349 635.502,417.158 635.444,415.538C634.101,415.621 632.418,415.604 631.793,415.604C631.731,415.604 631.699,415.578 631.699,415.526C631.699,415.432 631.723,415.297 631.77,415.119C631.827,414.89 631.8,414.817 631.811,414.775C631.821,414.593 631.881,414.44 631.903,414.399C631.937,414.335 632.051,414.37 632.113,414.37L632.207,414.378C634.051,414.487 635.267,414.542 635.856,414.542C636.376,414.542 637.228,414.503 638.41,414.425C639.218,414.373 645.151,414.202 645.016,414.202C645.151,414.202 645.227,414.249 645.242,414.343C645.232,414.286 645.227,414.022 645.227,414.584C645.227,414.652 645.235,414.757 645.25,414.901C645.266,415.044 645.274,415.152 645.274,415.225Z" style="fill-rule:nonzero;"/>
        </g>
        <g transform="matrix(19.2369,0,0,22.9944,-11567.6,-8214.47)">
            <g transform="matrix(16,0,0,16,631.598,424.854)">
                <path d="M0.696,-0.343C0.696,-0.246 0.665,-0.163 0.603,-0.093C0.539,-0.021 0.458,0.015 0.363,0.015C0.267,0.015 0.187,-0.021 0.123,-0.093C0.061,-0.162 0.03,-0.245 0.03,-0.343C0.03,-0.439 0.061,-0.522 0.124,-0.592C0.188,-0.665 0.268,-0.701 0.363,-0.701C0.458,-0.701 0.538,-0.665 0.603,-0.592C0.665,-0.523 0.696,-0.439 0.696,-0.343ZM0.578,-0.344C0.578,-0.408 0.558,-0.464 0.519,-0.511C0.477,-0.561 0.425,-0.586 0.362,-0.586C0.3,-0.586 0.248,-0.561 0.207,-0.51C0.167,-0.462 0.148,-0.407 0.148,-0.343C0.148,-0.279 0.167,-0.224 0.207,-0.176C0.248,-0.125 0.3,-0.1 0.362,-0.1C0.425,-0.1 0.477,-0.125 0.519,-0.176C0.558,-0.224 0.578,-0.28 0.578,-0.344Z" style="fill-rule:nonzero;"/>
            </g>
            <g transform="matrix(16,0,0,16,643.199,424.854)">
                <path d="M0.61,-0.674C0.61,-0.637 0.609,-0.58 0.606,-0.505C0.603,-0.429 0.601,-0.373 0.601,-0.335C0.601,-0.323 0.601,-0.304 0.602,-0.28C0.602,-0.255 0.602,-0.237 0.602,-0.225C0.602,-0.157 0.596,-0.109 0.583,-0.083C0.563,-0.043 0.526,-0.015 0.469,-0.001C0.435,0.008 0.386,0.012 0.323,0.012C0.209,0.012 0.135,-0.007 0.099,-0.044C0.072,-0.074 0.058,-0.132 0.058,-0.22C0.058,-0.231 0.058,-0.249 0.059,-0.275C0.059,-0.3 0.059,-0.32 0.059,-0.335C0.059,-0.373 0.057,-0.444 0.054,-0.547C0.054,-0.574 0.053,-0.614 0.05,-0.667C0.049,-0.671 0.049,-0.674 0.049,-0.675C0.049,-0.682 0.054,-0.685 0.062,-0.685C0.075,-0.685 0.093,-0.685 0.116,-0.685C0.143,-0.684 0.16,-0.684 0.17,-0.684C0.177,-0.684 0.181,-0.681 0.181,-0.675C0.181,-0.626 0.18,-0.551 0.178,-0.452C0.176,-0.353 0.175,-0.278 0.175,-0.229C0.175,-0.173 0.187,-0.135 0.212,-0.115C0.234,-0.098 0.273,-0.089 0.331,-0.089C0.383,-0.089 0.421,-0.096 0.443,-0.11C0.471,-0.128 0.485,-0.162 0.485,-0.211C0.485,-0.262 0.484,-0.34 0.482,-0.443C0.481,-0.546 0.48,-0.623 0.48,-0.674C0.48,-0.68 0.485,-0.683 0.494,-0.684C0.501,-0.685 0.511,-0.685 0.523,-0.684C0.538,-0.683 0.546,-0.682 0.545,-0.682C0.551,-0.682 0.56,-0.683 0.572,-0.684C0.583,-0.685 0.592,-0.685 0.598,-0.685C0.606,-0.685 0.61,-0.681 0.61,-0.674Z" style="fill-rule:nonzero;"/>
            </g>
            <g transform="matrix(16,0,0,16,653.762,424.854)">
                <path d="M0.591,-0.023C0.591,-0.008 0.587,-0 0.577,-0L0.465,-0C0.455,-0 0.431,-0.035 0.391,-0.104C0.358,-0.163 0.335,-0.205 0.324,-0.231C0.313,-0.256 0.307,-0.27 0.305,-0.273C0.295,-0.289 0.284,-0.298 0.271,-0.299C0.267,-0.299 0.256,-0.299 0.238,-0.299C0.197,-0.299 0.177,-0.294 0.177,-0.284C0.177,-0.254 0.178,-0.209 0.18,-0.15C0.182,-0.09 0.183,-0.046 0.183,-0.016C0.183,-0.005 0.179,-0 0.171,-0C0.165,-0 0.155,-0 0.143,-0.001C0.131,-0.002 0.121,-0.003 0.115,-0.003C0.109,-0.003 0.101,-0.002 0.089,-0.001C0.078,-0 0.069,-0 0.063,-0C0.055,-0 0.051,-0.004 0.051,-0.011C0.051,-0.047 0.052,-0.101 0.056,-0.173C0.059,-0.244 0.061,-0.298 0.061,-0.334C0.061,-0.372 0.059,-0.428 0.056,-0.504C0.052,-0.58 0.051,-0.637 0.051,-0.674C0.051,-0.681 0.055,-0.685 0.063,-0.685C0.069,-0.685 0.078,-0.685 0.09,-0.684C0.102,-0.683 0.111,-0.682 0.117,-0.682C0.123,-0.682 0.132,-0.683 0.144,-0.684C0.155,-0.685 0.164,-0.685 0.17,-0.685C0.177,-0.685 0.181,-0.682 0.181,-0.676C0.181,-0.649 0.18,-0.607 0.178,-0.551C0.177,-0.496 0.176,-0.454 0.176,-0.426C0.176,-0.413 0.177,-0.405 0.178,-0.402C0.181,-0.396 0.188,-0.393 0.198,-0.393C0.261,-0.393 0.308,-0.405 0.337,-0.428C0.362,-0.449 0.386,-0.487 0.408,-0.543C0.424,-0.587 0.441,-0.63 0.457,-0.674C0.459,-0.679 0.464,-0.683 0.472,-0.685C0.477,-0.686 0.495,-0.687 0.524,-0.687C0.56,-0.687 0.578,-0.682 0.578,-0.672C0.578,-0.666 0.57,-0.64 0.555,-0.593C0.538,-0.538 0.515,-0.49 0.487,-0.448C0.468,-0.42 0.444,-0.391 0.413,-0.363C0.405,-0.356 0.401,-0.35 0.401,-0.344C0.401,-0.338 0.415,-0.309 0.441,-0.257C0.464,-0.212 0.484,-0.175 0.503,-0.148C0.523,-0.123 0.552,-0.084 0.589,-0.032C0.59,-0.029 0.591,-0.026 0.591,-0.023Z" style="fill-rule:nonzero;"/>
            </g>
            <g transform="matrix(16,0,0,16,663.301,424.854)">
                <path d="M0.696,-0.343C0.696,-0.246 0.665,-0.163 0.603,-0.093C0.539,-0.021 0.458,0.015 0.363,0.015C0.267,0.015 0.187,-0.021 0.123,-0.093C0.061,-0.162 0.03,-0.245 0.03,-0.343C0.03,-0.439 0.061,-0.522 0.124,-0.592C0.188,-0.665 0.268,-0.701 0.363,-0.701C0.458,-0.701 0.538,-0.665 0.603,-0.592C0.665,-0.523 0.696,-0.439 0.696,-0.343ZM0.578,-0.344C0.578,-0.408 0.558,-0.464 0.519,-0.511C0.477,-0.561 0.425,-0.586 0.362,-0.586C0.3,-0.586 0.248,-0.561 0.207,-0.51C0.167,-0.462 0.148,-0.407 0.148,-0.343C0.148,-0.279 0.167,-0.224 0.207,-0.176C0.248,-0.125 0.3,-0.1 0.362,-0.1C0.425,-0.1 0.477,-0.125 0.519,-0.176C0.558,-0.224 0.578,-0.28 0.578,-0.344Z" style="fill-rule:nonzero;"/>
            </g>
            <g transform="matrix(16,0,0,16,674.902,424.854)">
                <path d="M0.511,-0.106C0.511,-0.06 0.509,-0.028 0.504,-0.009C0.502,0.001 0.496,0.005 0.487,0.005C0.463,0.005 0.427,0.004 0.378,0.001C0.33,-0.002 0.294,-0.003 0.27,-0.003C0.247,-0.003 0.213,-0.002 0.168,-0.001C0.123,-0 0.089,-0 0.066,-0C0.058,-0 0.054,-0.004 0.054,-0.012C0.054,-0.048 0.055,-0.101 0.057,-0.173C0.06,-0.244 0.061,-0.298 0.061,-0.334C0.061,-0.372 0.059,-0.428 0.056,-0.504C0.052,-0.579 0.051,-0.636 0.051,-0.673C0.051,-0.681 0.055,-0.684 0.063,-0.684C0.069,-0.684 0.078,-0.684 0.09,-0.683C0.102,-0.682 0.111,-0.681 0.117,-0.681C0.123,-0.681 0.132,-0.682 0.145,-0.683C0.157,-0.684 0.166,-0.684 0.172,-0.684C0.18,-0.684 0.184,-0.681 0.184,-0.675C0.184,-0.64 0.182,-0.588 0.18,-0.519C0.177,-0.45 0.176,-0.398 0.176,-0.363L0.176,-0.286C0.175,-0.251 0.175,-0.225 0.175,-0.208C0.175,-0.136 0.178,-0.1 0.184,-0.1C0.304,-0.1 0.395,-0.103 0.456,-0.109C0.459,-0.109 0.466,-0.11 0.479,-0.112C0.488,-0.114 0.496,-0.115 0.501,-0.115C0.508,-0.115 0.511,-0.112 0.511,-0.106Z" style="fill-rule:nonzero;"/>
            </g>
            <g transform="matrix(16,0,0,16,683.176,424.854)">
                <path d="M0.655,-0.006C0.655,-0.002 0.651,-0 0.643,-0C0.637,-0 0.628,-0 0.616,-0.001C0.604,-0.002 0.595,-0.003 0.589,-0.003C0.583,-0.003 0.573,-0.002 0.561,-0.001C0.549,-0 0.539,-0 0.533,-0C0.524,-0 0.512,-0.025 0.498,-0.074C0.484,-0.123 0.47,-0.148 0.455,-0.149C0.443,-0.15 0.412,-0.15 0.361,-0.15L0.284,-0.15C0.23,-0.15 0.199,-0.15 0.192,-0.149C0.18,-0.148 0.168,-0.123 0.155,-0.074C0.141,-0.025 0.131,-0 0.124,-0L0.014,-0C0.008,-0 0.004,-0.002 0.004,-0.007C0.004,-0.01 0.007,-0.017 0.011,-0.029L0.131,-0.356C0.141,-0.382 0.172,-0.458 0.223,-0.584C0.232,-0.605 0.244,-0.636 0.26,-0.678C0.264,-0.691 0.268,-0.697 0.272,-0.697C0.279,-0.697 0.288,-0.696 0.3,-0.694C0.312,-0.693 0.321,-0.692 0.327,-0.692C0.333,-0.692 0.342,-0.693 0.354,-0.695C0.366,-0.696 0.374,-0.697 0.38,-0.697C0.383,-0.697 0.387,-0.691 0.392,-0.679C0.4,-0.661 0.438,-0.563 0.508,-0.385C0.606,-0.134 0.655,-0.008 0.655,-0.006ZM0.427,-0.275C0.427,-0.285 0.413,-0.327 0.383,-0.402C0.355,-0.475 0.335,-0.523 0.323,-0.546C0.256,-0.374 0.222,-0.284 0.222,-0.276C0.222,-0.265 0.235,-0.258 0.259,-0.256C0.261,-0.256 0.277,-0.256 0.307,-0.256L0.357,-0.256C0.404,-0.256 0.427,-0.262 0.427,-0.275Z" style="fill-rule:nonzero;"/>
            </g>
            <g transform="matrix(16,0,0,16,693.723,424.854)">
                <path d="M0.665,-0.674C0.665,-0.637 0.664,-0.58 0.661,-0.505C0.659,-0.429 0.657,-0.373 0.657,-0.335C0.657,-0.299 0.658,-0.246 0.658,-0.176C0.659,-0.105 0.659,-0.052 0.659,-0.016C0.659,-0.005 0.655,-0 0.647,-0C0.642,-0 0.635,-0 0.625,-0.001C0.615,-0.002 0.608,-0.003 0.603,-0.003C0.598,-0.003 0.59,-0.002 0.579,-0.001C0.568,-0 0.56,-0 0.555,-0C0.549,-0 0.542,-0.005 0.534,-0.016C0.464,-0.111 0.357,-0.252 0.214,-0.44C0.192,-0.469 0.179,-0.485 0.176,-0.488C0.173,-0.488 0.171,-0.481 0.171,-0.468C0.171,-0.418 0.172,-0.342 0.173,-0.242C0.175,-0.142 0.176,-0.066 0.176,-0.016C0.176,-0.005 0.173,-0 0.166,-0C0.16,-0 0.152,-0 0.141,-0.001C0.129,-0.002 0.121,-0.003 0.115,-0.003C0.109,-0.003 0.101,-0.002 0.089,-0.001C0.078,-0 0.069,-0 0.063,-0C0.055,-0 0.051,-0.003 0.051,-0.01C0.051,-0.046 0.052,-0.1 0.056,-0.172C0.059,-0.244 0.061,-0.298 0.061,-0.334C0.061,-0.373 0.06,-0.444 0.057,-0.547C0.056,-0.574 0.054,-0.614 0.052,-0.667L0.051,-0.673C0.051,-0.678 0.055,-0.681 0.063,-0.681C0.084,-0.681 0.101,-0.682 0.113,-0.683C0.117,-0.683 0.126,-0.685 0.139,-0.687C0.149,-0.689 0.158,-0.69 0.164,-0.69C0.167,-0.69 0.172,-0.685 0.179,-0.676C0.254,-0.573 0.369,-0.42 0.523,-0.217C0.53,-0.208 0.536,-0.201 0.542,-0.195C0.544,-0.208 0.545,-0.24 0.545,-0.289C0.545,-0.331 0.544,-0.394 0.541,-0.479C0.538,-0.564 0.536,-0.627 0.536,-0.669C0.536,-0.68 0.539,-0.685 0.546,-0.685C0.552,-0.685 0.561,-0.685 0.573,-0.684C0.584,-0.683 0.593,-0.682 0.599,-0.682C0.605,-0.682 0.615,-0.683 0.627,-0.684C0.639,-0.685 0.649,-0.685 0.655,-0.685C0.662,-0.685 0.665,-0.681 0.665,-0.674Z" style="fill-rule:nonzero;"/>
            </g>
        </g>
        <g transform="matrix(19.2369,0,0,22.9944,-11573.4,-7911.32)">
            <g transform="matrix(16,0,0,16,631.598,424.854)">
                <path d="M0.513,-0.098C0.513,-0.093 0.512,-0.085 0.509,-0.076C0.506,-0.063 0.505,-0.056 0.504,-0.053C0.503,-0.042 0.501,-0.024 0.497,-0.002C0.495,0.004 0.491,0.007 0.484,0.007C0.481,0.007 0.475,0.006 0.466,0.005C0.426,-0.001 0.364,-0.004 0.28,-0.004C0.256,-0.004 0.22,-0.003 0.172,-0.002C0.125,-0.001 0.089,-0 0.065,-0C0.054,-0 0.049,-0.005 0.049,-0.014C0.049,-0.051 0.051,-0.105 0.055,-0.178C0.059,-0.252 0.061,-0.306 0.061,-0.343C0.061,-0.38 0.059,-0.449 0.055,-0.55C0.055,-0.576 0.053,-0.615 0.05,-0.667L0.049,-0.674C0.049,-0.681 0.053,-0.685 0.062,-0.685C0.085,-0.685 0.119,-0.684 0.165,-0.683C0.21,-0.682 0.244,-0.681 0.267,-0.681C0.289,-0.681 0.322,-0.682 0.365,-0.683C0.408,-0.684 0.441,-0.685 0.463,-0.685C0.478,-0.685 0.486,-0.68 0.488,-0.671C0.495,-0.628 0.498,-0.601 0.498,-0.591C0.498,-0.583 0.494,-0.58 0.487,-0.58C0.46,-0.58 0.418,-0.581 0.362,-0.584C0.305,-0.587 0.263,-0.589 0.235,-0.589C0.208,-0.589 0.191,-0.585 0.184,-0.578C0.177,-0.571 0.174,-0.553 0.174,-0.525L0.174,-0.452C0.174,-0.432 0.174,-0.421 0.175,-0.417C0.178,-0.407 0.187,-0.402 0.201,-0.402C0.205,-0.402 0.21,-0.403 0.217,-0.403L0.234,-0.403C0.298,-0.403 0.355,-0.404 0.406,-0.406C0.426,-0.407 0.449,-0.409 0.476,-0.411C0.483,-0.412 0.486,-0.409 0.486,-0.402C0.486,-0.392 0.485,-0.376 0.483,-0.354C0.48,-0.333 0.479,-0.317 0.479,-0.306C0.479,-0.3 0.474,-0.297 0.464,-0.297C0.46,-0.297 0.446,-0.299 0.421,-0.301C0.403,-0.303 0.362,-0.304 0.298,-0.304C0.244,-0.304 0.21,-0.303 0.196,-0.302C0.183,-0.301 0.175,-0.294 0.173,-0.281C0.174,-0.284 0.174,-0.271 0.174,-0.244L0.174,-0.171C0.174,-0.138 0.179,-0.116 0.189,-0.108C0.198,-0.101 0.218,-0.098 0.25,-0.098L0.304,-0.098C0.327,-0.098 0.391,-0.102 0.496,-0.11L0.503,-0.11C0.51,-0.111 0.513,-0.107 0.513,-0.098Z" style="fill-rule:nonzero;"/>
            </g>
            <g transform="matrix(16,0,0,16,640.207,424.854)">
                <path d="M0.579,-0.004C0.579,-0.001 0.576,-0 0.571,-0C0.565,-0 0.555,-0 0.542,-0.001C0.53,-0.002 0.52,-0.003 0.514,-0.003C0.507,-0.003 0.497,-0.002 0.484,-0.001C0.47,-0 0.46,-0 0.453,-0C0.446,-0 0.44,-0.004 0.436,-0.012C0.426,-0.034 0.396,-0.103 0.347,-0.218C0.342,-0.229 0.33,-0.237 0.312,-0.239C0.307,-0.24 0.292,-0.24 0.267,-0.24C0.222,-0.24 0.195,-0.239 0.187,-0.238C0.18,-0.237 0.177,-0.229 0.177,-0.213C0.177,-0.19 0.178,-0.156 0.18,-0.111C0.182,-0.065 0.183,-0.031 0.183,-0.009C0.183,-0.002 0.18,0.001 0.173,0.001C0.167,0.001 0.157,0.001 0.144,-0.001C0.131,-0.002 0.121,-0.003 0.114,-0.003C0.108,-0.003 0.1,-0.002 0.088,-0.001C0.077,-0 0.069,-0 0.063,-0C0.055,-0 0.051,-0.004 0.051,-0.011C0.051,-0.047 0.052,-0.102 0.056,-0.174C0.059,-0.247 0.061,-0.301 0.061,-0.337C0.061,-0.44 0.057,-0.549 0.05,-0.666L0.049,-0.674C0.049,-0.68 0.056,-0.684 0.07,-0.684C0.098,-0.684 0.14,-0.684 0.196,-0.686C0.251,-0.687 0.293,-0.688 0.321,-0.688C0.393,-0.688 0.451,-0.671 0.495,-0.636C0.543,-0.598 0.567,-0.544 0.567,-0.474C0.567,-0.426 0.56,-0.388 0.547,-0.36C0.534,-0.331 0.508,-0.303 0.471,-0.277C0.465,-0.273 0.462,-0.269 0.462,-0.265C0.462,-0.26 0.481,-0.217 0.52,-0.135C0.559,-0.053 0.579,-0.009 0.579,-0.004ZM0.445,-0.447C0.445,-0.506 0.428,-0.545 0.394,-0.565C0.369,-0.58 0.324,-0.587 0.259,-0.587C0.206,-0.587 0.179,-0.583 0.178,-0.574C0.176,-0.557 0.175,-0.51 0.175,-0.433L0.175,-0.34C0.176,-0.339 0.178,-0.339 0.181,-0.338C0.187,-0.337 0.197,-0.336 0.21,-0.335C0.241,-0.334 0.274,-0.333 0.31,-0.333C0.4,-0.333 0.445,-0.371 0.445,-0.447Z" style="fill-rule:nonzero;"/>
            </g>
            <g transform="matrix(16,0,0,16,649.715,424.854)">
                <path d="M0.655,-0.006C0.655,-0.002 0.651,-0 0.643,-0C0.637,-0 0.628,-0 0.616,-0.001C0.604,-0.002 0.595,-0.003 0.589,-0.003C0.583,-0.003 0.573,-0.002 0.561,-0.001C0.549,-0 0.539,-0 0.533,-0C0.524,-0 0.512,-0.025 0.498,-0.074C0.484,-0.123 0.47,-0.148 0.455,-0.149C0.443,-0.15 0.412,-0.15 0.361,-0.15L0.284,-0.15C0.23,-0.15 0.199,-0.15 0.192,-0.149C0.18,-0.148 0.168,-0.123 0.155,-0.074C0.141,-0.025 0.131,-0 0.124,-0L0.014,-0C0.008,-0 0.004,-0.002 0.004,-0.007C0.004,-0.01 0.007,-0.017 0.011,-0.029L0.131,-0.356C0.141,-0.382 0.172,-0.458 0.223,-0.584C0.232,-0.605 0.244,-0.636 0.26,-0.678C0.264,-0.691 0.268,-0.697 0.272,-0.697C0.279,-0.697 0.288,-0.696 0.3,-0.694C0.312,-0.693 0.321,-0.692 0.327,-0.692C0.333,-0.692 0.342,-0.693 0.354,-0.695C0.366,-0.696 0.374,-0.697 0.38,-0.697C0.383,-0.697 0.387,-0.691 0.392,-0.679C0.4,-0.661 0.438,-0.563 0.508,-0.385C0.606,-0.134 0.655,-0.008 0.655,-0.006ZM0.427,-0.275C0.427,-0.285 0.413,-0.327 0.383,-0.402C0.355,-0.475 0.335,-0.523 0.323,-0.546C0.256,-0.374 0.222,-0.284 0.222,-0.276C0.222,-0.265 0.235,-0.258 0.259,-0.256C0.261,-0.256 0.277,-0.256 0.307,-0.256L0.357,-0.256C0.404,-0.256 0.427,-0.262 0.427,-0.275Z" style="fill-rule:nonzero;"/>
            </g>
            <g transform="matrix(16,0,0,16,660.262,424.854)">
                <path d="M0.604,-0.432C0.604,-0.356 0.583,-0.294 0.542,-0.249C0.499,-0.201 0.44,-0.178 0.365,-0.178C0.346,-0.178 0.318,-0.178 0.281,-0.18C0.243,-0.181 0.215,-0.182 0.196,-0.182C0.185,-0.182 0.18,-0.175 0.18,-0.162C0.18,-0.145 0.181,-0.119 0.183,-0.084C0.185,-0.05 0.187,-0.024 0.187,-0.007C0.187,-0.001 0.183,0.001 0.177,0.001C0.17,0.001 0.16,0.001 0.146,-0.001C0.132,-0.002 0.122,-0.003 0.115,-0.003C0.109,-0.003 0.101,-0.002 0.089,-0.001C0.078,-0 0.069,-0 0.064,-0C0.056,-0 0.052,-0.005 0.052,-0.015C0.052,-0.051 0.053,-0.104 0.056,-0.176C0.059,-0.247 0.061,-0.301 0.061,-0.337C0.061,-0.438 0.057,-0.548 0.05,-0.664L0.049,-0.671C0.049,-0.679 0.053,-0.682 0.062,-0.682C0.08,-0.682 0.106,-0.682 0.141,-0.682C0.177,-0.681 0.203,-0.681 0.221,-0.681C0.236,-0.681 0.259,-0.682 0.29,-0.683C0.321,-0.684 0.344,-0.685 0.359,-0.685C0.431,-0.685 0.49,-0.661 0.536,-0.612C0.581,-0.564 0.604,-0.504 0.604,-0.432ZM0.481,-0.425C0.481,-0.474 0.468,-0.513 0.441,-0.542C0.414,-0.573 0.376,-0.588 0.328,-0.588C0.313,-0.588 0.286,-0.587 0.248,-0.584C0.204,-0.581 0.181,-0.579 0.18,-0.576C0.178,-0.572 0.177,-0.516 0.177,-0.408C0.177,-0.395 0.177,-0.374 0.178,-0.347C0.179,-0.319 0.179,-0.299 0.179,-0.285C0.179,-0.282 0.183,-0.28 0.19,-0.278C0.208,-0.275 0.257,-0.273 0.339,-0.273C0.384,-0.273 0.42,-0.287 0.445,-0.315C0.469,-0.342 0.481,-0.379 0.481,-0.425Z" style="fill-rule:nonzero;"/>
            </g>
            <g transform="matrix(16,0,0,16,670.246,424.854)">
                <path d="M0.185,-0.01C0.185,-0.003 0.18,-0 0.171,-0C0.165,-0 0.156,-0 0.144,-0.001C0.132,-0.002 0.123,-0.003 0.117,-0.003C0.111,-0.003 0.102,-0.002 0.09,-0.001C0.078,-0 0.069,-0 0.063,-0C0.055,-0 0.051,-0.004 0.051,-0.011C0.051,-0.048 0.052,-0.104 0.056,-0.179C0.059,-0.254 0.061,-0.31 0.061,-0.347C0.061,-0.383 0.059,-0.438 0.056,-0.51C0.052,-0.582 0.051,-0.637 0.051,-0.673C0.051,-0.681 0.055,-0.685 0.062,-0.685C0.068,-0.685 0.078,-0.685 0.09,-0.684C0.103,-0.683 0.113,-0.682 0.119,-0.682C0.125,-0.682 0.134,-0.683 0.146,-0.684C0.157,-0.685 0.166,-0.685 0.172,-0.685C0.18,-0.685 0.185,-0.682 0.185,-0.675C0.185,-0.639 0.183,-0.584 0.181,-0.511C0.178,-0.438 0.177,-0.384 0.177,-0.347C0.177,-0.31 0.178,-0.254 0.181,-0.179C0.184,-0.104 0.185,-0.048 0.185,-0.01Z" style="fill-rule:nonzero;"/>
            </g>
            <g transform="matrix(16,0,0,16,674.035,424.854)">
                <path d="M0.655,-0.006C0.655,-0.002 0.651,-0 0.643,-0C0.637,-0 0.628,-0 0.616,-0.001C0.604,-0.002 0.595,-0.003 0.589,-0.003C0.583,-0.003 0.573,-0.002 0.561,-0.001C0.549,-0 0.539,-0 0.533,-0C0.524,-0 0.512,-0.025 0.498,-0.074C0.484,-0.123 0.47,-0.148 0.455,-0.149C0.443,-0.15 0.412,-0.15 0.361,-0.15L0.284,-0.15C0.23,-0.15 0.199,-0.15 0.192,-0.149C0.18,-0.148 0.168,-0.123 0.155,-0.074C0.141,-0.025 0.131,-0 0.124,-0L0.014,-0C0.008,-0 0.004,-0.002 0.004,-0.007C0.004,-0.01 0.007,-0.017 0.011,-0.029L0.131,-0.356C0.141,-0.382 0.172,-0.458 0.223,-0.584C0.232,-0.605 0.244,-0.636 0.26,-0.678C0.264,-0.691 0.268,-0.697 0.272,-0.697C0.279,-0.697 0.288,-0.696 0.3,-0.694C0.312,-0.693 0.321,-0.692 0.327,-0.692C0.333,-0.692 0.342,-0.693 0.354,-0.695C0.366,-0.696 0.374,-0.697 0.38,-0.697C0.383,-0.697 0.387,-0.691 0.392,-0.679C0.4,-0.661 0.438,-0.563 0.508,-0.385C0.606,-0.134 0.655,-0.008 0.655,-0.006ZM0.427,-0.275C0.427,-0.285 0.413,-0.327 0.383,-0.402C0.355,-0.475 0.335,-0.523 0.323,-0.546C0.256,-0.374 0.222,-0.284 0.222,-0.276C0.222,-0.265 0.235,-0.258 0.259,-0.256C0.261,-0.256 0.277,-0.256 0.307,-0.256L0.357,-0.256C0.404,-0.256 0.427,-0.262 0.427,-0.275Z" style="fill-rule:nonzero;"/>
            </g>
        </g>
    </g>
</svg>
